<mxfile host="app.diagrams.net" modified="2024-04-09T16:16:38.574Z" agent="Mozilla/5.0 (Windows NT 10.0; Win64; x64) AppleWebKit/537.36 (KHTML, like Gecko) Chrome/123.0.0.0 Safari/537.36 Edg/123.0.0.0" etag="rj2D-IoVYfTjZ4QfdZpr" version="24.2.1" type="github">
  <diagram name="Страница — 1" id="QW4c46FoWPEvZzp0OGLk">
    <mxGraphModel dx="1699" dy="481" grid="1" gridSize="10" guides="1" tooltips="1" connect="1" arrows="1" fold="1" page="1" pageScale="1" pageWidth="827" pageHeight="1169" math="0" shadow="0">
      <root>
        <mxCell id="0" />
        <mxCell id="1" parent="0" />
        <mxCell id="4b4riIWPSLHSRYh8Ou8V-2" value="PRODUCT&lt;div&gt;DATA&lt;/div&gt;" style="shape=cylinder3;whiteSpace=wrap;html=1;boundedLbl=1;backgroundOutline=1;size=15;" vertex="1" parent="1">
          <mxGeometry x="20" y="20" width="60" height="80" as="geometry" />
        </mxCell>
        <mxCell id="4b4riIWPSLHSRYh8Ou8V-3" value="PRODUCT MANAGER" style="rounded=1;whiteSpace=wrap;html=1;" vertex="1" parent="1">
          <mxGeometry x="240" y="30" width="70" height="60" as="geometry" />
        </mxCell>
        <mxCell id="4b4riIWPSLHSRYh8Ou8V-4" value="CLIENT" style="rounded=1;whiteSpace=wrap;html=1;" vertex="1" parent="1">
          <mxGeometry x="255" y="790" width="80" height="60" as="geometry" />
        </mxCell>
        <mxCell id="4b4riIWPSLHSRYh8Ou8V-35" value="TRUE&lt;div&gt;FALSE&lt;/div&gt;" style="rounded=1;whiteSpace=wrap;html=1;" vertex="1" parent="1">
          <mxGeometry x="150" y="40" width="40" height="40" as="geometry" />
        </mxCell>
        <mxCell id="4b4riIWPSLHSRYh8Ou8V-36" value="" style="shape=flexArrow;endArrow=classic;startArrow=classic;html=1;rounded=0;" edge="1" parent="1">
          <mxGeometry width="100" height="100" relative="1" as="geometry">
            <mxPoint x="190" y="59.58" as="sourcePoint" />
            <mxPoint x="250" y="60" as="targetPoint" />
          </mxGeometry>
        </mxCell>
        <mxCell id="4b4riIWPSLHSRYh8Ou8V-37" value="" style="shape=flexArrow;endArrow=classic;startArrow=classic;html=1;rounded=0;entryX=0;entryY=0.75;entryDx=0;entryDy=0;" edge="1" target="4b4riIWPSLHSRYh8Ou8V-35" parent="1">
          <mxGeometry width="100" height="100" relative="1" as="geometry">
            <mxPoint x="80" y="70" as="sourcePoint" />
            <mxPoint x="150" y="30" as="targetPoint" />
          </mxGeometry>
        </mxCell>
        <mxCell id="4b4riIWPSLHSRYh8Ou8V-38" value="SERVICE" style="swimlane;whiteSpace=wrap;html=1;" vertex="1" parent="1">
          <mxGeometry x="200" y="470" width="200" height="200" as="geometry" />
        </mxCell>
        <mxCell id="4b4riIWPSLHSRYh8Ou8V-45" value="" style="shape=flexArrow;endArrow=classic;html=1;rounded=0;" edge="1" parent="4b4riIWPSLHSRYh8Ou8V-38">
          <mxGeometry width="50" height="50" relative="1" as="geometry">
            <mxPoint x="115" y="200" as="sourcePoint" />
            <mxPoint x="115" y="30" as="targetPoint" />
          </mxGeometry>
        </mxCell>
        <mxCell id="4b4riIWPSLHSRYh8Ou8V-44" value="" style="shape=flexArrow;endArrow=classic;html=1;rounded=0;" edge="1" parent="4b4riIWPSLHSRYh8Ou8V-38">
          <mxGeometry width="50" height="50" relative="1" as="geometry">
            <mxPoint x="85" y="20" as="sourcePoint" />
            <mxPoint x="85" y="130" as="targetPoint" />
          </mxGeometry>
        </mxCell>
        <mxCell id="4b4riIWPSLHSRYh8Ou8V-46" value="" style="shape=flexArrow;endArrow=classic;html=1;rounded=0;" edge="1" parent="4b4riIWPSLHSRYh8Ou8V-38">
          <mxGeometry width="50" height="50" relative="1" as="geometry">
            <mxPoint x="80" y="120" as="sourcePoint" />
            <mxPoint y="120" as="targetPoint" />
          </mxGeometry>
        </mxCell>
        <mxCell id="4b4riIWPSLHSRYh8Ou8V-62" style="edgeStyle=orthogonalEdgeStyle;rounded=0;orthogonalLoop=1;jettySize=auto;html=1;" edge="1" parent="4b4riIWPSLHSRYh8Ou8V-38" source="4b4riIWPSLHSRYh8Ou8V-59">
          <mxGeometry relative="1" as="geometry">
            <mxPoint x="34.99999999999977" y="120.00000000000011" as="targetPoint" />
          </mxGeometry>
        </mxCell>
        <mxCell id="4b4riIWPSLHSRYh8Ou8V-59" value="PHONE" style="rounded=1;whiteSpace=wrap;html=1;" vertex="1" parent="4b4riIWPSLHSRYh8Ou8V-38">
          <mxGeometry x="10" y="150" width="50" height="40" as="geometry" />
        </mxCell>
        <mxCell id="4b4riIWPSLHSRYh8Ou8V-61" value="" style="endArrow=classic;html=1;rounded=0;" edge="1" parent="4b4riIWPSLHSRYh8Ou8V-38">
          <mxGeometry width="50" height="50" relative="1" as="geometry">
            <mxPoint x="110" y="169.57999999999998" as="sourcePoint" />
            <mxPoint x="60" y="169.57999999999998" as="targetPoint" />
          </mxGeometry>
        </mxCell>
        <mxCell id="4b4riIWPSLHSRYh8Ou8V-43" value="" style="shape=flexArrow;endArrow=classic;html=1;rounded=0;" edge="1" parent="1">
          <mxGeometry width="50" height="50" relative="1" as="geometry">
            <mxPoint x="315" y="790" as="sourcePoint" />
            <mxPoint x="315" y="670" as="targetPoint" />
          </mxGeometry>
        </mxCell>
        <mxCell id="4b4riIWPSLHSRYh8Ou8V-47" value="-CATEGORY&lt;div&gt;-NAME PRODUCT&lt;/div&gt;&lt;div&gt;-SUM&lt;/div&gt;" style="rounded=1;whiteSpace=wrap;html=1;" vertex="1" parent="1">
          <mxGeometry x="280" y="210" width="80" height="60" as="geometry" />
        </mxCell>
        <mxCell id="4b4riIWPSLHSRYh8Ou8V-48" value="" style="shape=flexArrow;endArrow=classic;html=1;rounded=0;entryX=0.75;entryY=1;entryDx=0;entryDy=0;" edge="1" parent="1" target="4b4riIWPSLHSRYh8Ou8V-3">
          <mxGeometry width="50" height="50" relative="1" as="geometry">
            <mxPoint x="295" y="210" as="sourcePoint" />
            <mxPoint x="345" y="160" as="targetPoint" />
          </mxGeometry>
        </mxCell>
        <mxCell id="4b4riIWPSLHSRYh8Ou8V-49" value="" style="shape=flexArrow;endArrow=classic;html=1;rounded=0;" edge="1" parent="1">
          <mxGeometry width="50" height="50" relative="1" as="geometry">
            <mxPoint x="260" y="90" as="sourcePoint" />
            <mxPoint x="260" y="270" as="targetPoint" />
          </mxGeometry>
        </mxCell>
        <mxCell id="4b4riIWPSLHSRYh8Ou8V-51" value="ORDERS" style="rounded=1;whiteSpace=wrap;html=1;" vertex="1" parent="1">
          <mxGeometry x="240" y="270" width="120" height="60" as="geometry" />
        </mxCell>
        <mxCell id="4b4riIWPSLHSRYh8Ou8V-52" value="" style="shape=flexArrow;endArrow=classic;html=1;rounded=0;exitX=0.582;exitY=0.011;exitDx=0;exitDy=0;exitPerimeter=0;entryX=0.646;entryY=0.969;entryDx=0;entryDy=0;entryPerimeter=0;" edge="1" parent="1" source="4b4riIWPSLHSRYh8Ou8V-38" target="4b4riIWPSLHSRYh8Ou8V-51">
          <mxGeometry width="50" height="50" relative="1" as="geometry">
            <mxPoint x="319.40999999999997" y="460" as="sourcePoint" />
            <mxPoint x="319.40999999999997" y="400" as="targetPoint" />
          </mxGeometry>
        </mxCell>
        <mxCell id="4b4riIWPSLHSRYh8Ou8V-54" value="-ID&lt;div&gt;-CHECK&lt;/div&gt;" style="rounded=1;whiteSpace=wrap;html=1;" vertex="1" parent="1">
          <mxGeometry x="245" y="370" width="60" height="60" as="geometry" />
        </mxCell>
        <mxCell id="4b4riIWPSLHSRYh8Ou8V-55" value="" style="shape=flexArrow;endArrow=classic;html=1;rounded=0;" edge="1" parent="1">
          <mxGeometry width="50" height="50" relative="1" as="geometry">
            <mxPoint x="274.40999999999997" y="330" as="sourcePoint" />
            <mxPoint x="274" y="370" as="targetPoint" />
          </mxGeometry>
        </mxCell>
        <mxCell id="4b4riIWPSLHSRYh8Ou8V-56" value="" style="shape=flexArrow;endArrow=classic;html=1;rounded=0;" edge="1" parent="1">
          <mxGeometry width="50" height="50" relative="1" as="geometry">
            <mxPoint x="280.40999999999997" y="430" as="sourcePoint" />
            <mxPoint x="280" y="470" as="targetPoint" />
          </mxGeometry>
        </mxCell>
        <mxCell id="4b4riIWPSLHSRYh8Ou8V-57" value="MESSAGE" style="rounded=1;whiteSpace=wrap;html=1;" vertex="1" parent="1">
          <mxGeometry x="-60" y="555" width="120" height="60" as="geometry" />
        </mxCell>
        <mxCell id="4b4riIWPSLHSRYh8Ou8V-63" value="" style="shape=flexArrow;endArrow=classic;html=1;rounded=0;" edge="1" parent="1">
          <mxGeometry width="50" height="50" relative="1" as="geometry">
            <mxPoint x="200" y="590" as="sourcePoint" />
            <mxPoint x="60" y="590" as="targetPoint" />
          </mxGeometry>
        </mxCell>
        <mxCell id="4b4riIWPSLHSRYh8Ou8V-64" value="" style="shape=flexArrow;endArrow=classic;html=1;rounded=0;exitX=0.75;exitY=1;exitDx=0;exitDy=0;" edge="1" parent="1" source="4b4riIWPSLHSRYh8Ou8V-57">
          <mxGeometry width="50" height="50" relative="1" as="geometry">
            <mxPoint x="-20" y="790" as="sourcePoint" />
            <mxPoint x="30" y="820" as="targetPoint" />
          </mxGeometry>
        </mxCell>
        <mxCell id="4b4riIWPSLHSRYh8Ou8V-65" value="" style="shape=flexArrow;endArrow=classic;html=1;rounded=0;entryX=0;entryY=0.25;entryDx=0;entryDy=0;" edge="1" parent="1" target="4b4riIWPSLHSRYh8Ou8V-4">
          <mxGeometry width="50" height="50" relative="1" as="geometry">
            <mxPoint x="50" y="800" as="sourcePoint" />
            <mxPoint x="150" y="800" as="targetPoint" />
          </mxGeometry>
        </mxCell>
        <mxCell id="4b4riIWPSLHSRYh8Ou8V-66" value="BY ARTHUR ZAMKOVOY" style="rounded=0;whiteSpace=wrap;html=1;" vertex="1" parent="1">
          <mxGeometry x="90" y="690" width="120" height="60" as="geometry" />
        </mxCell>
      </root>
    </mxGraphModel>
  </diagram>
</mxfile>
